<?xml version="1.0" encoding="utf-8"?>
<!-- Generator: Adobe Illustrator 18.0.0, SVG Export Plug-In . SVG Version: 6.00 Build 0)  -->
<!DOCTYPE svg PUBLIC "-//W3C//DTD SVG 1.1//EN" "http://www.w3.org/Graphics/SVG/1.1/DTD/svg11.dtd">
<svg version="1.1" id="Layer_1" xmlns="http://www.w3.org/2000/svg" xmlns:xlink="http://www.w3.org/1999/xlink" x="0px" y="0px"
	 viewBox="0 0 612 792" style="enable-background:new 0 0 612 792;" xml:space="preserve">
<style type="text/css">
.st1{fill:url(#SVGID_1_);}
.st2{fill:url(#SVGID_2_);}
</style>
<g id="bird">
	<linearGradient id="SVGID_1_" gradientUnits="userSpaceOnUse" x1="282.7861" y1="415.1047" x2="160.7861" y2="404.6047">
		<stop  offset="0" style="stop-color:#F15A29"/>
		<stop  offset="0.7276" style="stop-color:#EA0A8A"/>
	</linearGradient>
	<path class="st1" d="M266.5,418.9c0,0-3.1-16.7,1.5-35.5c0.6-2.2,1-3.9,1.3-5.2c1.6-5.9,3.1-9.4,3.1-9.4
		c-54.1-39-60.6,12.4-60.6,12.4c-11.9,7.4-13.9,21.3-13.9,21.3s22.8-14.2,36.6,13.3c13.8,27.5,22.2,50.1,66.9,58.2
		C301.4,473.9,278.4,461.8,266.5,418.9z M269.3,378.3c-0.6,2.3-1.2,5-1.3,5.2C268.4,381.6,268.8,379.8,269.3,378.3z"/>
	<linearGradient id="SVGID_2_" gradientUnits="userSpaceOnUse" x1="225.7171" y1="391.0956" x2="548.3838" y2="351.0956">
		<stop  offset="0" style="stop-color:#F15A29"/>
		<stop  offset="0.1814" style="stop-color:#EA0A8A"/>
	</linearGradient>
	<path class="st2" d="M332.6,442.8c-21.1-11.8-21.6-25-18-34.5c2.9-7.6,8.6-12.7,8.6-12.7c33.8-29.2,47.8-38.1,55.2-61.4
		c2-6.2,2.1-12.8,1.2-19.2c-0.1-6.6-3.4-15.5-6.6-22.4c-2.6-5.8-5-9.9-5.6-10.9c-0.1-0.2-0.2-0.3-0.2-0.3
		c-7.6,21.8-49.2,43.8-74.2,75.8c-25,32-11.6,71.6-11.6,71.6c13.7,39.2,53.3,40,55,39.9c18.5,0.2,45-7.2,54.5-54.4
		C365.4,459.1,332.6,442.8,332.6,442.8z M368.7,287.2c0-0.5,0-1.1-0.1-1.5C368.7,286.2,368.7,286.7,368.7,287.2z"/>
</g>
</svg>
